<svg width="262" height="143" viewBox="0 0 262 143" fill="none" xmlns="http://www.w3.org/2000/svg">
<path d="M15.9189 0.679688V54H3.06494V0.679688H15.9189ZM36.6465 22.8721V32.7598H12.2568V22.8721H36.6465ZM38.7339 0.679688V10.604H12.2568V0.679688H38.7339ZM70.3306 0.679688H91.3145C95.416 0.679688 98.9805 1.29004 102.008 2.51074C105.035 3.73145 107.367 5.53809 109.002 7.93066C110.663 10.3232 111.493 13.2773 111.493 16.793C111.493 19.8447 111.017 22.396 110.064 24.4468C109.112 26.4976 107.782 28.1943 106.073 29.5371C104.388 30.8555 102.423 31.9419 100.177 32.7964L95.9653 35.1768H78.3506L78.2773 25.2524H91.3145C92.9502 25.2524 94.3052 24.9595 95.3794 24.3735C96.4536 23.7876 97.2593 22.9575 97.7964 21.8833C98.3579 20.7847 98.6387 19.4785 98.6387 17.9648C98.6387 16.4268 98.3579 15.1084 97.7964 14.0098C97.2349 12.9111 96.4048 12.0688 95.3062 11.4829C94.2319 10.897 92.9014 10.604 91.3145 10.604H83.1846V54H70.3306V0.679688ZM99.5176 54L87.7256 30.416L101.349 30.3428L113.287 53.4507V54H99.5176ZM182.201 44.1123V54H153.783V44.1123H182.201ZM158.36 0.679688V54H145.506V0.679688H158.36ZM178.539 21.8467V31.4048H153.783V21.8467H178.539ZM182.311 0.679688V10.604H153.783V0.679688H182.311ZM250.418 44.1123V54H222V44.1123H250.418ZM226.578 0.679688V54H213.724V0.679688H226.578ZM246.756 21.8467V31.4048H222V21.8467H246.756ZM250.528 0.679688V10.604H222V0.679688H250.528ZM13.209 142H6.43408V98.9336C6.43408 95.9307 7.02002 93.3916 8.19189 91.3164C9.36377 89.2412 11.0361 87.6665 13.209 86.5923C15.3818 85.5181 17.9575 84.981 20.936 84.981C22.6938 84.981 24.415 85.2007 26.0996 85.6401C27.7842 86.0552 29.5176 86.5801 31.2998 87.2148L30.1646 92.9277C29.0415 92.4883 27.7354 92.0732 26.2461 91.6826C24.7812 91.2676 23.1699 91.0601 21.4121 91.0601C18.5068 91.0601 16.4072 91.7192 15.1133 93.0376C13.8438 94.3315 13.209 96.2969 13.209 98.9336V142ZM21.3022 102.376V107.576H0.171875V102.376H21.3022ZM34.6323 102.376V142H27.8574V102.376H34.6323ZM53.126 85.75V142H46.3145V85.75H53.126ZM80.4453 142.732C77.6865 142.732 75.1841 142.269 72.938 141.341C70.7163 140.389 68.7998 139.058 67.1885 137.349C65.6016 135.64 64.3809 133.614 63.5264 131.27C62.6719 128.926 62.2446 126.363 62.2446 123.58V122.042C62.2446 118.819 62.7207 115.95 63.6729 113.436C64.625 110.896 65.9189 108.748 67.5547 106.99C69.1904 105.232 71.0459 103.902 73.1211 102.999C75.1963 102.095 77.3447 101.644 79.5664 101.644C82.3984 101.644 84.8398 102.132 86.8906 103.108C88.9658 104.085 90.6626 105.452 91.981 107.21C93.2993 108.943 94.2759 110.994 94.9106 113.362C95.5454 115.706 95.8628 118.27 95.8628 121.053V124.092H66.2729V118.562H89.0879V118.05C88.9902 116.292 88.624 114.583 87.9893 112.923C87.3789 111.263 86.4023 109.896 85.0596 108.821C83.7168 107.747 81.8857 107.21 79.5664 107.21C78.0283 107.21 76.6123 107.54 75.3184 108.199C74.0244 108.833 72.9136 109.786 71.9858 111.055C71.0581 112.325 70.3379 113.875 69.8252 115.706C69.3125 117.537 69.0562 119.649 69.0562 122.042V123.58C69.0562 125.459 69.3125 127.229 69.8252 128.89C70.3623 130.525 71.1313 131.966 72.1323 133.211C73.1577 134.456 74.3906 135.433 75.8311 136.141C77.2959 136.849 78.9561 137.203 80.8115 137.203C83.2041 137.203 85.2305 136.714 86.8906 135.738C88.5508 134.761 90.0034 133.455 91.2485 131.819L95.3501 135.079C94.4956 136.373 93.4092 137.605 92.0908 138.777C90.7725 139.949 89.1489 140.901 87.2202 141.634C85.3159 142.366 83.0576 142.732 80.4453 142.732ZM129.151 85.75V142H122.376V85.75H129.151ZM127.54 120.687L124.72 120.577C124.745 117.867 125.147 115.364 125.929 113.069C126.71 110.75 127.809 108.736 129.225 107.027C130.641 105.318 132.325 104 134.278 103.072C136.256 102.12 138.441 101.644 140.833 101.644C142.787 101.644 144.544 101.912 146.107 102.449C147.669 102.962 149 103.792 150.099 104.939C151.222 106.087 152.076 107.576 152.662 109.407C153.248 111.214 153.541 113.423 153.541 116.036V142H146.729V115.962C146.729 113.887 146.424 112.227 145.814 110.982C145.204 109.712 144.312 108.797 143.141 108.235C141.969 107.649 140.528 107.356 138.819 107.356C137.135 107.356 135.597 107.71 134.205 108.418C132.838 109.126 131.654 110.103 130.653 111.348C129.676 112.593 128.907 114.021 128.346 115.633C127.809 117.22 127.54 118.904 127.54 120.687ZM161.891 122.627V121.785C161.891 118.929 162.306 116.28 163.136 113.838C163.966 111.373 165.162 109.236 166.725 107.43C168.287 105.599 170.179 104.183 172.401 103.182C174.623 102.156 177.113 101.644 179.872 101.644C182.655 101.644 185.157 102.156 187.379 103.182C189.625 104.183 191.529 105.599 193.092 107.43C194.679 109.236 195.887 111.373 196.717 113.838C197.547 116.28 197.962 118.929 197.962 121.785V122.627C197.962 125.484 197.547 128.133 196.717 130.574C195.887 133.016 194.679 135.152 193.092 136.983C191.529 138.79 189.637 140.206 187.416 141.231C185.218 142.232 182.728 142.732 179.945 142.732C177.162 142.732 174.659 142.232 172.438 141.231C170.216 140.206 168.312 138.79 166.725 136.983C165.162 135.152 163.966 133.016 163.136 130.574C162.306 128.133 161.891 125.484 161.891 122.627ZM168.666 121.785V122.627C168.666 124.605 168.897 126.473 169.361 128.23C169.825 129.964 170.521 131.502 171.449 132.845C172.401 134.188 173.585 135.25 175.001 136.031C176.417 136.788 178.065 137.166 179.945 137.166C181.8 137.166 183.424 136.788 184.815 136.031C186.231 135.25 187.403 134.188 188.331 132.845C189.259 131.502 189.955 129.964 190.418 128.23C190.907 126.473 191.151 124.605 191.151 122.627V121.785C191.151 119.832 190.907 117.989 190.418 116.255C189.955 114.498 189.247 112.947 188.294 111.604C187.367 110.237 186.195 109.163 184.779 108.382C183.387 107.601 181.751 107.21 179.872 107.21C178.016 107.21 176.38 107.601 174.964 108.382C173.573 109.163 172.401 110.237 171.449 111.604C170.521 112.947 169.825 114.498 169.361 116.255C168.897 117.989 168.666 119.832 168.666 121.785ZM229.53 131.49C229.53 130.513 229.31 129.61 228.871 128.78C228.456 127.925 227.589 127.156 226.271 126.473C224.977 125.765 223.023 125.154 220.411 124.642C218.214 124.178 216.224 123.628 214.442 122.994C212.684 122.359 211.183 121.59 209.938 120.687C208.717 119.783 207.777 118.721 207.118 117.5C206.458 116.28 206.129 114.852 206.129 113.216C206.129 111.653 206.471 110.176 207.154 108.785C207.862 107.393 208.851 106.16 210.121 105.086C211.415 104.012 212.965 103.169 214.771 102.559C216.578 101.949 218.592 101.644 220.814 101.644C223.988 101.644 226.698 102.205 228.944 103.328C231.19 104.451 232.911 105.953 234.107 107.833C235.304 109.688 235.902 111.751 235.902 114.021H229.127C229.127 112.923 228.797 111.861 228.138 110.835C227.503 109.786 226.563 108.919 225.318 108.235C224.098 107.552 222.596 107.21 220.814 107.21C218.934 107.21 217.408 107.503 216.236 108.089C215.089 108.65 214.247 109.371 213.709 110.25C213.197 111.128 212.94 112.056 212.94 113.033C212.94 113.765 213.062 114.424 213.307 115.01C213.575 115.572 214.039 116.097 214.698 116.585C215.357 117.049 216.285 117.488 217.481 117.903C218.678 118.318 220.204 118.733 222.059 119.148C225.306 119.881 227.979 120.76 230.079 121.785C232.179 122.811 233.741 124.068 234.767 125.557C235.792 127.046 236.305 128.853 236.305 130.977C236.305 132.71 235.938 134.297 235.206 135.738C234.498 137.178 233.46 138.423 232.093 139.473C230.75 140.499 229.139 141.304 227.259 141.89C225.404 142.452 223.316 142.732 220.997 142.732C217.506 142.732 214.552 142.11 212.135 140.865C209.718 139.62 207.887 138.008 206.642 136.031C205.396 134.053 204.774 131.966 204.774 129.769H211.585C211.683 131.624 212.22 133.101 213.197 134.2C214.173 135.274 215.37 136.043 216.786 136.507C218.202 136.946 219.605 137.166 220.997 137.166C222.853 137.166 224.403 136.922 225.648 136.434C226.917 135.945 227.882 135.274 228.541 134.419C229.2 133.565 229.53 132.588 229.53 131.49ZM261.793 102.376V107.576H240.37V102.376H261.793ZM247.621 92.7446H254.396V132.186C254.396 133.528 254.603 134.542 255.018 135.225C255.433 135.909 255.97 136.36 256.629 136.58C257.289 136.8 257.997 136.91 258.753 136.91C259.315 136.91 259.901 136.861 260.511 136.763C261.146 136.641 261.622 136.543 261.939 136.47L261.976 142C261.439 142.171 260.731 142.33 259.852 142.476C258.998 142.647 257.96 142.732 256.739 142.732C255.079 142.732 253.553 142.403 252.162 141.744C250.77 141.084 249.659 139.986 248.829 138.448C248.023 136.885 247.621 134.786 247.621 132.149V92.7446Z" fill="#1E1E1E"/>
</svg>
